#!OML:ASF E:/inclinewalkrobotboard/Project1/Captureday1/Session1/subject1.ASF
:FULLY-SPECIFIED
:DEGREES
88
root 0 0 0 1.0531507334516808 -3.67917016041138 1.8629878187455362
lowerback 11.924767543770576 0.857183355180068 -0.05839593262505424
upperback -4.22438945229891 1.0869545829349687 -0.5566164226322122
thorax -11.298121942012346 0.4962780309414868 -0.8003010484839503
lowerneck -5.667531599594679 1.4461987449424005 4.565708894974647
upperneck 18.081171975065807 2.882476518854716 -8.318960009935415
head 6.588568704307198 1.0476576876000574 -3.2217084026481824
rclavicle -8.973821260904227E-16 -3.440012910790237E-16
rhumerus 20.16021588750816 14.70991172750489 -48.140023126261596
rradius 72.54510029673257
rwrist 26.737041275891915
rhand -34.756424050021955 -57.39385588983781
rfingers 7.125020000000038
rthumb -7.91769866420336 -87.30860782226364
lclavicle 9.020147948530997E-16 -1.7504254958992434E-15
lhumerus 20.851308070063723 -12.751648050073337 45.28175653866503
lradius 69.94607771172761
lwrist -22.27546370376536
lhand -44.7748801697879 -69.72508445158496
lfingers 7.125020000000029
lthumb -17.566270755465357 -40.52686435585114
rfemur -24.89442908028351 -2.2122647921270584 17.208278018329075
rtibia 54.048656128237496
rfoot -29.079566965144117 -16.73297292217646
rtoes -17.672092264030912
lfemur -26.677111673796183 2.4058595712670523 -18.29478160453971
ltibia 54.16510284484625
lfoot -31.06162407652797 -3.528359469636961
ltoes -19.631998052775092
89
root 0 0 0 1.0530174788466515 -3.6794039115062454 1.8629588097820338
lowerback 11.924768493051255 0.8571597289901599 -0.05834107953110895
upperback -4.224307631352986 1.0869339772073305 -0.5565671828147458
thorax -11.298028215614112 0.4962671287895839 -0.800272932285458
lowerneck -5.66705187915644 1.4461297675205764 4.565758597943577
upperneck 18.080876815893582 2.882400702417641 -8.31915436114879
head 6.588391903829127 1.047627025915976 -3.2217848733668815
rclavicle -8.968758736263895E-16 -3.4333108773182463E-16
rhumerus 20.160232428871623 14.709977645622931 -48.14001180283972
rradius 72.54512606004178
rwrist 26.73698565909807
rhand -34.75628013183809 -57.39360451818831
rfingers 7.125020000000038
rthumb -7.917563857732729 -87.30837270706428
lclavicle 9.019767171024635E-16 -1.749868917731871E-15
lhumerus 20.85133977838217 -12.751796551337943 45.28164086431539
lradius 69.94622112849599
lwrist -22.275512573446697
lhand -44.7748158669798 -69.72454494466692
lfingers 7.125020000000029
lthumb -17.566210458150138 -40.526331002802195
rfemur -24.894399037050633 -2.212288548297676 17.208360742305054
rtibia 54.04871107970246
rfoot -29.079476985556433 -16.73292549512204
rtoes -17.672000765155655
lfemur -26.677120303847452 2.4058506475480943 -18.29475225115581
ltibia 54.16604996762243
lfoot -31.061185002777897 -3.5287738026030957
ltoes -19.631674784402286
90
root 0 0 0 1.052795902020965 -3.6798115343412325 1.8629044714170195
lowerback 11.924765072247075 0.8571197912759461 -0.05825014387111219
upperback -4.22416753518744 1.0868992083822324 -0.5564826412103225
thorax -11.29786498228266 0.496248814872454 -0.8002227178204591
lowerneck -5.6662656612683975 1.4460166037971507 4.56583747396539
upperneck 18.0803913694025 2.8822778945780834 -8.319471627431916
head 6.588101747150372 1.047577384819939 -3.221909201663015
rclavicle -8.960378608728064E-16 -3.4379095658646105E-16
rhumerus 20.160534935794725 14.710312391202244 -48.139865057476015
rradius 72.545328002014
rwrist 26.736927214762005
rhand -34.75579286250115 -57.393000980947846
rfingers 7.125020000000038
rthumb -7.917098591112023 -87.30775893254076
lclavicle 9.031164974521499E-16 -1.7502159018697094E-15
lhumerus 20.851526308437073 -12.752092787281963 45.281298541226874
lradius 69.94643993660578
lwrist -22.275576397368603
lhand -44.774660104975915 -69.7236359372245
lfingers 7.125020000000029
lthumb -17.566062224998337 -40.52540396331818
rfemur -24.894414768221605 -2.212287909464675 17.20838305986296
rtibia 54.04878175255415
rfoot -29.079465219043428 -16.732903460527222
rtoes -17.671882877456593
lfemur -26.67699073929093 2.40595333567432 -18.29474628850025
ltibia 54.16624131790283
lfoot -31.060945203628513 -3.5287679336968196
ltoes -19.631747043092854
91
root 0 0 0 1.053607445517828 -3.678300429359019 1.8630894775077764
lowerback 11.92485069922871 0.8572614308846215 -0.05851123327651589
upperback -4.224630266762297 1.0870280589484986 -0.556763567656863
thorax -11.298436439990644 0.49631527001374054 -0.8004196129721437
lowerneck -5.668754883306379 1.4463166873417128 4.56551941958117
upperneck 18.081841002677677 2.882556379537884 -8.318396432863807
head 6.588990393025906 1.047692280029914 -3.2214914213123858
rclavicle -9.075085381180633E-16 -3.3486282606146606E-16
rhumerus 20.16087100821479 14.7097272245886 -48.13958533997239
rradius 72.54548572579694
rwrist 26.737564305990862
rhand -34.75674955375469 -57.39452358423806
rfingers 7.125020000000038
rthumb -7.918071685250329 -87.30863155819016
lclavicle 8.94771917671217E-16 -1.743922182768603E-15
lhumerus 20.851708982095907 -12.75210703700355 45.28204780716955
lradius 69.94645283434397
lwrist -22.2750660208679
lhand -44.7752037168386 -69.72548683457931
lfingers 7.1250200000000286
lthumb -17.566669009227773 -40.527366389897196
rfemur -24.893714352439964 -2.2117893861638027 17.207456259714146
rtibia 54.04905349046642
rfoot -29.078856429203423 -16.733941989272864
rtoes -17.67244293632479
lfemur -26.67876266882231 2.4062197091022828 -18.294796632315652
ltibia 54.16372089797815
lfoot -31.0630568542166 -3.5260135370892787
ltoes -19.63213350916266
92
root 0 0 0 1.0531867322327955 -3.67910434268445 1.862995779063201
lowerback 11.924769021945616 0.8571896480421717 -0.05841078411198089
upperback -4.224412132930084 1.0869600374142914 -0.5566296350895541
thorax -11.298148918563285 0.49628089218137245 -0.80030866442829
lowerneck -5.667657491593088 1.4462163830454018 4.565694017195497
upperneck 18.081249023242336 2.8824952458737405 -8.318906758637294
head 6.588614918757024 1.0476652985675938 -3.2216873667094164
rclavicle -8.976776136098571E-16 -3.4398065413706377E-16
rhumerus 20.160164339119312 14.709849107584253 -48.140042734598715
rradius 72.54506535759543
rwrist 26.737060425304676
rhand -34.75651904528509 -57.393991811225575
rfingers 7.125020000000038
rthumb -7.917789928296027 -87.30874456764715
lclavicle 9.016699404179765E-16 -1.7504323162110083E-15
lhumerus 20.851259586371054 -12.751562681838893 45.28183445247585
lradius 69.94601929107839
lwrist -22.27545574858264
lhand -44.77491889017985 -69.72532692553376
lfingers 7.125020000000029
lthumb -17.566308577267886 -40.52711092475568
rfemur -24.89442714191744 -2.21226531773161 17.208277148153147
rtibia 54.04865707061189
rfoot -29.079561552516427 -16.732977196752167
rtoes -17.672088003301567
lfemur -26.677194113448387 2.405856703475489 -18.294786278488225
ltibia 54.16515185308038
lfoot -31.061627900587133 -3.5283763357118136
ltoes -19.63186956431782
93
root 0 0 0 1.053046681374174 -3.6793505064585528 1.862965252315072
lowerback 11.92476974862429 0.8571648303055135 -0.05835308605941464
upperback -4.224325997252854 1.086938403087521 -0.5565778821712108
thorax -11.298050088884683 0.4962694491445329 -0.8002791156339764
lowerneck -5.667153778496339 1.4461440001843089 4.56574649233687
upperneck 18.08093910083828 2.882415780061751 -8.319111191788629
head 6.588429284746884 1.0476331551920246 -3.22176782087304
rclavicle -8.97120705377915E-16 -3.4331216795327776E-16
rhumerus 20.160190487972546 14.709926654325395 -48.14002794280767
rradius 72.54509766942735
rwrist 26.737001186094176
rhand -34.75635784934518 -57.39371568470847
rfingers 7.125020000000038
rthumb -7.9176385278246855 -87.30848451893931
lclavicle 9.016912563908724E-16 -1.7498737864904618E-15
lhumerus 20.851299842221437 -12.75172639825855 45.28170491321322
lradius 69.94617308183756
lwrist -22.275506045124555
lhand -44.77484767871277 -69.72474408739433
lfingers 7.125020000000029
lthumb -17.566241521504697 -40.52653354588399
rfemur -24.894397606587113 -2.2122890779589817 17.208360067367913
rtibia 54.0487119738101
rfoot -29.079472686815937 -16.73292913867072
rtoes -17.67199719282379
lfemur -26.677189105849013 2.4058484115683223 -18.294756075816448
ltibia 54.16608967675315
lfoot -31.061188668426148 -3.5287866530231464
ltoes -19.63156888427052
94
root 0 0 0 1.0528191800294442 -3.6797689604120385 1.8629096048887859
lowerback 11.92476608064489 0.8571238571850406 -0.05825971140338196
upperback -4.224182171553142 1.0869027363972221 -0.5564911681348591
thorax -11.297882418108788 0.4962506643309744 -0.8002276468166167
lowerneck -5.666346868749322 1.4460279412358745 4.5658278187487955
upperneck 18.080440993239243 2.882289901583984 -8.319437216251519
head 6.588131533118516 1.0475822658928744 -3.221895608690504
rclavicle -8.962328928108607E-16 -3.4377698589978184E-16
rhumerus 20.16050140977991 14.710271655133035 -48.139877971044484
rradius 72.54530528874758
rwrist 26.73693959850884
rhand -34.75585493388084 -57.39308974660142
rfingers 7.125020000000038
rthumb -7.917158224812845 -87.3078482206277
lclavicle 9.02888978619607E-16 -1.750220591118623E-15
lhumerus 20.851494423149752 -12.752036775491465 45.28134966532208
lradius 69.94640157261779
lwrist -22.275571180505036
lhand -44.77468548310448 -69.72379492929649
lfingers 7.125020000000029
lthumb -17.566087008458037 -40.525565673769705
rfemur -24.89441366140386 -2.2122883296906894 17.208382493471326
rtibia 54.04878249401406
rfoot -29.079461820932796 -16.732906395216833
rtoes -17.67188005240126
lfemur -26.67704586885411 2.4059515641006666 -18.294749396135778
ltibia 54.16627261190268
lfoot -31.06094840610895 -3.5287779506325894
ltoes -19.631662404554493
95
root 0 0 0 1.0526562411414186 -3.6800670150567885 1.8628725613260364
lowerback 11.924760545023844 0.8570952766069229 -0.05819223880789667
upperback -4.224079110110841 1.0868780228154384 -0.5564308455830489
thorax -11.297760557461928 0.49623768464264906 -0.8001928448111348
lowerneck -5.66577597420153 1.4459473665127538 4.5658934933689
upperneck 18.08008952517079 2.8822039588045874 -8.31967703107006
head 6.587921245440171 1.0475473589003044 -3.2219902247436023
rclavicle -8.950689757625397E-16 -3.4394923002807796E-16
rhumerus 20.16071727689213 14.710532230685377 -48.139785294074365
rradius 72.5454498605713
rwrist 26.736867077879566
rhand -34.75544634241642 -57.39251577635679
rfingers 7.125020000000038
rthumb -7.916766036365576 -87.30727329423118
lclavicle 9.042266004867523E-16 -1.7502670197530653E-15
lhumerus 20.85169426203945 -12.75238543003075 45.28103083635843
lradius 69.9466436162258
lwrist -22.275605616503498
lhand -44.77453099416565 -69.72281752417913
lfingers 7.125020000000029
lthumb -17.565936353948743 -40.524573701135665
rfemur -24.89443117479715 -2.212288578407442 17.20838781248454
rtibia 54.048797482951166
rfoot -29.079493052460982 -16.732893865008705
rtoes -17.671872396813402
lfemur -26.67678004318471 2.4059859905638117 -18.294734525739493
ltibia 54.16615883456311
lfoot -31.060891028563464 -3.5287069782247085
ltoes -19.632066895302717
